<svg height='300px' width='300px'  fill="#000000" xmlns="http://www.w3.org/2000/svg" xmlns:xlink="http://www.w3.org/1999/xlink" version="1.1" x="0px" y="0px" viewBox="0 0 66 66" enable-background="new 0 0 66 66" xml:space="preserve"><g><path d="M57.6,29.5c0.1-1.1-0.6-2.1-1.7-2.2c-4.8-0.6-8.4-4.8-10.4-9.3c0.2,0.6,0.2,1.2,0.2,1.8l-0.2,5.7c2.2,2.6,5.5,5.1,9.8,5.7   C56.5,31.3,57.5,30.5,57.6,29.5z"></path><path d="M33.1,43.2L31,49.7l-8.5,10.4c-1,1.3-0.9,3.2,0.4,4.2c1.3,1.1,3.2,0.9,4.2-0.4c9.4-11.5,9-10.9,9.1-11.2l-0.5-7.8   C34.8,44.5,33.9,43.9,33.1,43.2z"></path><path d="M24.1,36c-0.4-0.1-0.8-0.3-1-0.5l-2.7,8.2l-2.6-0.9l0.6-1.8l-2.7-0.9L15.1,42l-2.6-0.8c-0.7-0.2-1.4,0.2-1.6,0.8l-0.2,0.7   C10,42.5,8.1,42.4,7.9,43L3.3,57.2c-0.2,0.6,1.3,1.6,1.9,1.8l-0.1,0.4c-0.2,0.7,0.2,1.4,0.8,1.6l1,0.3l-0.1,0.3   c-0.1,0.4,0.1,0.9,0.5,1.1c0.4,0.1,0.9-0.1,1.1-0.5l0.1-0.3l2.8,0.9l-0.1,0.3c-0.1,0.4,0.1,0.9,0.5,1c0.4,0.1,0.9-0.1,1-0.5   l0.1-0.3l1,0.3c0.7,0.2,1.4-0.1,1.7-0.8l5.7-17.5c0.1-0.3,0.1-0.5,0-0.8L24.1,36z"></path><circle cx="39.1" cy="6.8" r="5.7"></circle><path d="M38.8,13.6c-2.1-0.1-3.9,0.9-5.1,2.5c-1.9,2-6,6.8-10.7,16.1c-0.5,1-0.1,2.2,0.9,2.7c1,0.5,2.2,0.1,2.7-0.9   c2.2-4.3,4.2-7.6,5.9-10l-0.4,14.1c-0.1,2.9,1.9,5.4,4.6,6l1.2,18c0.1,1.6,1.5,2.9,3.2,2.8c1.7-0.1,2.9-1.5,2.8-3.2l-1.3-19.5   c0.9-1,1.5-2.3,1.5-3.8l0.5-18.7C44.8,16.4,42.2,13.7,38.8,13.6z"></path><path d="M61,40.7h-0.7v-9.6h-2.4c-0.4,0.5-0.9,0.8-1.5,1h2.9v8.6h-7.2v-8.6h2.6c-1.3-0.2-2.4-0.5-3.5-1h-0.1v9.6h-1   c-0.9,0-1.6,0.7-1.6,1.6V60c0,0.9,0.7,1.6,1.6,1.6h0.4v1c-0.3,0.2-0.5,0.5-0.5,0.8c0,0.5,0.5,1,1,1c0.6,0,1-0.4,1-1   c0-0.3-0.2-0.6-0.5-0.8v-1h7.7v1c-0.3,0.2-0.5,0.5-0.5,0.8c0,0.5,0.5,1,1,1c0.6,0,1-0.4,1-1c0-0.3-0.2-0.6-0.5-0.8v-1H61   c0.9,0,1.6-0.7,1.6-1.6V42.2C62.7,41.4,61.9,40.7,61,40.7z"></path></g></svg>